<?xml version="1.0" encoding="utf-8"?>
<!-- Generator: Adobe Illustrator 18.1.1, SVG Export Plug-In . SVG Version: 6.00 Build 0)  -->
<svg version="1.1" id="Ebene_1" xmlns="http://www.w3.org/2000/svg" xmlns:xlink="http://www.w3.org/1999/xlink" x="0px" y="0px"
	 viewBox="0 0 100 21" enable-background="new 0 0 100 21" xml:space="preserve">
<g>
	<g>
		<path fill="#1D1D1B" d="M29.5,5.4v10.4h-1.3v-5h-4.9v5H22V6h-1.1V5.4h2.4v4.8h4.9V5.4H29.5z"/>
		<path fill="#1D1D1B" d="M40.3,5.4v0.2c-0.7,1.7-2.2,4.9-2.6,5.7c-0.5,1.1-0.5,2-0.5,3.5v1.1h-1.3v-1.1c0-1.6-0.1-2.4-0.7-3.5
			c-0.4-0.9-1.6-3.5-2.3-5.2h-1.1V5.4h2.3c0.1,0.2,0.2,0.5,0.3,0.7c0.7,1.6,1.5,3.7,2,4.6c0.1,0.3,0.3,0.6,0.3,0.9
			c0.1-0.4,0.3-0.8,0.5-1.1c0.5-1,1.6-3.4,2.2-5H40.3z"/>
		<path fill="#1D1D1B" d="M50.4,8.4c0,2.2-1,2.9-3.3,3.1c-1.8,0.1-2.1,0.3-2.1,2.3v2.1h-1.3V6h-1V5.4h4C48.9,5.4,50.4,6.4,50.4,8.4z
			 M49,8.4C49,7,48.5,6,46.8,6h-1.9v5.3c0.4-0.3,1-0.4,2.2-0.5C48.8,10.6,49,10,49,8.4z"/>
		<path fill="#1D1D1B" d="M53.1,10.6c0-3.1,1.9-5.4,4.4-5.4c2.2,0,3.4,1.2,3.4,2.9c0,1.6-0.9,2.2-2.9,2.7l-2.4,0.6
			c-0.6,0.2-1,0.4-1,1c0,1.8,1,3,2.7,3c1.3,0,2.3-0.4,3.5-1v0.8c-1,0.6-2,0.9-3.5,0.9C54.4,15.9,53.1,13.9,53.1,10.6z M55.5,10.7
			l2.1-0.6c1.3-0.3,1.7-1,1.7-2.3c0-1.3-0.6-1.9-1.7-1.9c-1.8,0-3.1,1.8-3.1,4.7c0,0.2,0,0.3,0,0.5C54.8,10.8,55.1,10.8,55.5,10.7z"
			/>
		<path fill="#1D1D1B" d="M72,15.2v0.5c-0.1,0-0.6,0.1-0.9,0.1c-0.8,0-1.1-0.2-2-1.5c-0.7-1.1-1.4-2.2-2.1-2.9
			c-1,0.2-1.3,0.7-1.3,2.3v2.1h-1.3V6h-1.1V5.4h4.2c2.2,0,3.7,1,3.7,3c0,1.8-0.9,2.6-2.7,2.9c0.6,0.7,1.2,1.6,1.8,2.6
			c0,0,0.3,0.6,0.7,1c0.2,0.3,0.4,0.3,0.6,0.3L72,15.2z M68.1,10.6c1.7-0.2,1.8-0.9,1.8-2.3C69.9,7,69.4,6,67.7,6h-1.9v5.2
			C66.2,10.9,66.9,10.8,68.1,10.6z"/>
		<path fill="#1D1D1B" d="M76.7,15.8h-1.3V6h-1.2V5.4h2.5V15.8z"/>
		<path fill="#1D1D1B" d="M80.2,10.6c0-3.3,1.5-5.4,4.4-5.4c2.9,0,4.4,2.1,4.4,5.4c0,3.3-1.5,5.4-4.4,5.4
			C81.7,15.9,80.2,13.9,80.2,10.6z M87.6,10.6c0-2.9-0.7-4.7-3-4.7c-2.3,0-3,1.9-3,4.7c0,2.8,0.7,4.7,3,4.7
			C86.9,15.3,87.6,13.4,87.6,10.6z"/>
		<path fill="#1D1D1B" d="M100.1,9.7v6.1h-1.3V9.9c0-1.9-0.1-2.2-0.2-2.6c-0.2-0.9-0.8-1.4-1.8-1.4c-1.9,0-2.9,1.3-2.9,4.2v5.7h-1.3
			V6h-1.1V5.4h2.4l0,1.5c0.7-1.1,1.7-1.6,3-1.6c1.3,0,2.4,0.6,2.9,1.8C100,7.6,100.1,8.3,100.1,9.7z"/>
	</g>
	<circle fill="#FFFFFF" cx="8.2" cy="10.6" r="8.7"/>
	<polygon fill="#D0D0D0" points="1,13.6 3.4,14.8 3.4,12.6 1.9,11 	"/>
	<path fill="#A8A8A7" d="M11.7,18c1.7-0.8,3.1-2.2,3.9-3.9L13,15.4L11.7,18z"/>
	<path fill="#D0D0D0" d="M5.5,18.3c0.9,0.3,1.8,0.5,2.8,0.5s1.9-0.2,2.8-0.5l-2.8-0.9L5.5,18.3z"/>
	<polygon fill="#706F6F" points="1.9,10.2 3.4,8.6 3.4,6.4 1,7.6 	"/>
	<polygon fill="#A8A8A7" points="9.6,5.8 8.2,4.4 6.9,5.8 	"/>
	<polygon fill="#706F6F" points="12.5,5.8 11.3,3.3 8.7,4.2 10.2,5.8 	"/>
	<path fill="#A8A8A7" d="M11,2.9c-0.9-0.3-1.8-0.5-2.8-0.5S6.3,2.6,5.5,2.9l2.8,0.9L11,2.9z"/>
	<path fill="#A8A8A7" d="M15.6,7.1c-0.8-1.7-2.2-3.1-3.9-3.9L13,5.8L15.6,7.1z"/>
	<path fill="#D0D0D0" d="M15.9,13.4c0.3-0.9,0.5-1.8,0.5-2.8s-0.2-1.9-0.5-2.8L15,10.6L15.9,13.4z"/>
	<path fill="#D0D0D0" d="M0.8,14.1C1.7,15.8,3,17.2,4.8,18l-1.3-2.6L0.8,14.1z"/>
	<polygon fill="#D0D0D0" points="7.8,4.2 5.2,3.3 4,5.8 6.2,5.8 	"/>
	<path fill="#A8A8A7" d="M0.6,7.8c-0.3,0.9-0.5,1.8-0.5,2.8c0,1,0.2,1.9,0.5,2.8l0.9-2.8L0.6,7.8z"/>
	<path fill="#D0D0D0" d="M4.8,3.2C3,4,1.7,5.4,0.8,7.1l2.6-1.3L4.8,3.2z"/>
	<polygon fill="#A8A8A7" points="3.4,11.9 3.4,9.3 2.1,10.6 	"/>
	<polygon fill="#D0D0D0" points="12.6,8.1 12.6,6.2 10.7,6.2 	"/>
	<polygon fill="#D0D0D0" points="6.4,6.2 3.9,8.8 3.9,12.4 6.4,14.9 10.1,14.9 12.6,12.4 12.6,8.8 10.1,6.2 	"/>
	<polygon fill="#A8A8A7" points="15.5,7.6 13.1,6.4 13.1,8.6 14.6,10.2 	"/>
	<polygon fill="#706F6F" points="13.1,9.3 13.1,11.9 14.4,10.6 	"/>
	<polygon fill="#D0D0D0" points="14.6,11 13.1,12.6 13.1,14.8 15.5,13.6 	"/>
	<polygon fill="#D0D0D0" points="3.9,6.2 3.9,8.1 5.8,6.2 	"/>
	<polygon fill="#A8A8A7" points="4,15.4 5.2,17.9 7.8,17 6.2,15.4 	"/>
	<polygon fill="#706F6F" points="3.9,13.1 3.9,14.9 5.8,14.9 	"/>
	<polygon fill="#706F6F" points="8.7,17 11.3,17.9 12.5,15.4 10.2,15.4 	"/>
	<polygon fill="#A8A8A7" points="12.6,14.9 12.6,13.1 10.7,14.9 	"/>
	<polygon fill="#D0D0D0" points="6.9,15.4 8.2,16.8 9.6,15.4 	"/>
</g>
</svg>
